<svg width="128" height="128" viewBox="0 0 128 128" fill="none" xmlns="http://www.w3.org/2000/svg">
<path d="M47.4832 113.252C47.4832 115.874 45.3576 118 42.7356 118H33.3523C31.1608 118 29.2541 116.5 28.7381 114.37L17.5562 68.2158C16.9773 65.8266 18.318 63.3908 20.6461 62.6016L29.2995 59.6683C31.8763 58.7948 34.6586 60.2612 35.3944 62.8807L40.3701 80.5943C40.9982 82.8302 43.1515 84.2835 45.46 84.0295L88.4773 79.2971C90.8839 79.0324 92.7058 76.9991 92.7058 74.578V20.7177C92.7058 18.0956 94.8314 15.9701 97.4534 15.9701H105.824C108.446 15.9701 110.571 18.0956 110.571 20.7177V113.252C110.571 115.874 108.446 118 105.824 118H97.4534C94.8314 118 92.7058 115.874 92.7058 113.252V105.103C92.7058 102.31 90.3057 100.12 87.5239 100.376L51.7965 103.657C49.3531 103.882 47.4832 105.931 47.4832 108.385V113.252Z" fill="black"/>
<path d="M76.7043 62.9508C76.7043 68.6403 72.5648 73.4841 66.9448 74.3707C62.1973 75.1196 57.4817 72.8533 55.1006 68.6785L53.4799 65.8369C52.3318 63.8239 50.7676 62.0789 48.8917 60.7183L42.8213 56.3156C32.4642 48.8038 29.3343 34.6484 35.3944 23.3802C41.3244 12.3539 54.5275 7.2178 66.2884 11.5104C79.2616 16.2454 86.0027 30.544 81.4006 43.5649L77.5943 54.3343C77.0053 56.0009 76.7043 57.7557 76.7043 59.5233V62.9508Z" fill="black"/>
</svg>
