<svg width="496" height="131" viewBox="0 0 496 131" fill="none" xmlns="http://www.w3.org/2000/svg">
<path d="M30.0613 103.252C30.0613 105.874 27.9358 108 25.3137 108H15.9304C13.7389 108 11.8322 106.5 11.3162 104.37L0.134294 58.2158C-0.44453 55.8266 0.89612 53.3908 3.22426 52.6016L11.8776 49.6683C14.4544 48.7948 17.2367 50.2612 17.9725 52.8807L22.9483 70.5943C23.5763 72.8302 25.7297 74.2835 28.0381 74.0295L71.0555 69.2971C73.4621 69.0324 75.2839 66.9991 75.2839 64.578V10.7177C75.2839 8.09564 77.4095 5.97006 80.0315 5.97006H88.402C91.024 5.97006 93.1496 8.09564 93.1496 10.7177V103.252C93.1496 105.874 91.024 108 88.402 108H80.0315C77.4095 108 75.2839 105.874 75.2839 103.252V95.1032C75.2839 92.3097 72.8838 90.12 70.102 90.3755L34.3747 93.6574C31.9312 93.8819 30.0613 95.9314 30.0613 98.3852V103.252Z" fill="url(#paint0_linear_2982_149)"/>
<path d="M59.2824 52.9508C59.2824 58.6403 55.1429 63.4841 49.5229 64.3707C44.7755 65.1196 40.0598 62.8533 37.6788 58.6785L36.0581 55.8369C34.91 53.8239 33.3458 52.0789 31.4698 50.7183L25.3994 46.3156C15.0423 38.8038 11.9124 24.6484 17.9725 13.3802C23.9025 2.35387 37.1057 -2.78219 48.8665 1.51037C61.8397 6.24543 68.5808 20.544 63.9787 33.565L60.1724 44.3343C59.5834 46.0009 59.2824 47.7557 59.2824 49.5233V52.9508Z" fill="url(#paint1_linear_2982_149)"/>
<path d="M118.58 109.274C113.484 109.274 109.433 107.902 106.428 105.158C103.488 102.349 102.018 98.69 102.018 94.182C102.018 89.7393 103.553 86.2113 106.624 83.598C109.76 80.9193 114.203 79.3513 119.952 78.894L134.456 77.718V76.64C134.456 74.4187 134.031 72.6547 133.182 71.348C132.398 69.976 131.255 68.996 129.752 68.408C128.249 67.7547 126.485 67.428 124.46 67.428C120.932 67.428 118.221 68.1467 116.326 69.584C114.431 70.956 113.484 72.916 113.484 75.464H103.292C103.292 71.936 104.174 68.898 105.938 66.35C107.767 63.7367 110.315 61.7113 113.582 60.274C116.914 58.8367 120.736 58.118 125.048 58.118C129.425 58.118 133.182 58.902 136.318 60.47C139.454 61.9727 141.871 64.2593 143.57 67.33C145.269 70.3353 146.118 74.092 146.118 78.6V108H135.632L134.75 100.846C133.705 103.329 131.679 105.354 128.674 106.922C125.734 108.49 122.369 109.274 118.58 109.274ZM122.402 100.258C126.126 100.258 129.066 99.2127 131.222 97.122C133.443 95.0313 134.554 92.124 134.554 88.4V85.852L124.46 86.636C120.736 86.9627 118.09 87.7467 116.522 88.988C114.954 90.164 114.17 91.732 114.17 93.692C114.17 95.848 114.889 97.4813 116.326 98.592C117.763 99.7027 119.789 100.258 122.402 100.258Z" fill="white"/>
<path d="M164.037 108H152.179V35.088H164.037V108Z" fill="white"/>
<path d="M182.753 108H170.895V35.088H182.753V108Z" fill="white"/>
<path d="M207.107 83.696C207.107 78.6653 208.218 74.2553 210.439 70.466C212.66 66.6113 215.731 63.606 219.651 61.45C223.571 59.294 228.014 58.216 232.979 58.216C238.01 58.216 242.452 59.294 246.307 61.45C250.227 63.606 253.298 66.6113 255.519 70.466C257.74 74.2553 258.851 78.6653 258.851 83.696C258.851 88.7267 257.74 93.1693 255.519 97.024C253.298 100.813 250.227 103.786 246.307 105.942C242.452 108.098 238.01 109.176 232.979 109.176C228.014 109.176 223.571 108.098 219.651 105.942C215.731 103.786 212.66 100.813 210.439 97.024C208.218 93.1693 207.107 88.7267 207.107 83.696ZM219.063 83.696C219.063 86.636 219.651 89.2167 220.827 91.438C222.068 93.6593 223.702 95.3907 225.727 96.632C227.818 97.8733 230.235 98.494 232.979 98.494C235.723 98.494 238.14 97.8733 240.231 96.632C242.322 95.3907 243.955 93.6593 245.131 91.438C246.307 89.2167 246.895 86.636 246.895 83.696C246.895 80.6907 246.307 78.11 245.131 75.954C243.955 73.7327 242.322 72.0013 240.231 70.76C238.14 69.5187 235.723 68.898 232.979 68.898C230.235 68.898 227.818 69.5187 225.727 70.76C223.702 72.0013 222.068 73.7327 220.827 75.954C219.651 78.11 219.063 80.6907 219.063 83.696Z" fill="white"/>
<path d="M257.454 59.588H287.834V69.584H257.454V59.588ZM287.932 35.578V45.77C287.279 45.77 286.593 45.77 285.874 45.77C285.221 45.77 284.535 45.77 283.816 45.77C280.811 45.77 278.786 46.4887 277.74 47.926C276.76 49.3633 276.27 51.2907 276.27 53.708V108H264.412V53.708C264.412 49.2653 265.131 45.7047 266.568 43.026C268.006 40.282 270.031 38.2893 272.644 37.048C275.258 35.7413 278.296 35.088 281.758 35.088C282.738 35.088 283.751 35.1207 284.796 35.186C285.907 35.2513 286.952 35.382 287.932 35.578Z" fill="white"/>
<path d="M324.427 108H311.883V36.362H324.427V66.056H356.179V36.362H368.723V108H356.179V77.62H324.427V108Z" fill="white"/>
<path d="M398.536 109.274C393.767 109.274 389.52 108.196 385.796 106.04C382.137 103.819 379.263 100.813 377.172 97.024C375.081 93.1693 374.036 88.7593 374.036 83.794C374.036 78.7633 375.049 74.3207 377.074 70.466C379.099 66.6113 381.941 63.606 385.6 61.45C389.259 59.2287 393.44 58.118 398.144 58.118C403.044 58.118 407.258 59.1633 410.786 61.254C414.314 63.2793 417.025 66.1213 418.92 69.78C420.88 73.4387 421.86 77.816 421.86 82.912V86.538L380.308 86.636L380.504 78.992H410.002C410.002 75.66 408.924 72.9813 406.768 70.956C404.677 68.9307 401.835 67.918 398.242 67.918C395.433 67.918 393.048 68.506 391.088 69.682C389.193 70.858 387.756 72.622 386.776 74.974C385.796 77.326 385.306 80.2007 385.306 83.598C385.306 88.8247 386.417 92.7773 388.638 95.456C390.925 98.1347 394.289 99.474 398.732 99.474C401.999 99.474 404.677 98.8533 406.768 97.612C408.924 96.3707 410.329 94.6067 410.982 92.32H422.056C421.011 97.612 418.397 101.761 414.216 104.766C410.1 107.771 404.873 109.274 398.536 109.274Z" fill="white"/>
<path d="M437.603 108H425.745V35.088H437.603V108Z" fill="white"/>
<path d="M444.265 130.442V59.588H455.339L456.123 66.938C457.56 64.1287 459.781 61.9727 462.787 60.47C465.792 58.902 469.091 58.118 472.685 58.118C477.323 58.118 481.309 59.1633 484.641 61.254C488.038 63.3447 490.684 66.252 492.579 69.976C494.473 73.7 495.421 78.11 495.421 83.206C495.421 88.2367 494.539 92.712 492.775 96.632C491.011 100.552 488.43 103.655 485.033 105.942C481.701 108.163 477.617 109.274 472.783 109.274C469.189 109.274 465.89 108.588 462.885 107.216C459.945 105.844 457.723 103.949 456.221 101.532V130.442H444.265ZM456.319 83.794C456.319 86.6687 456.874 89.2167 457.985 91.438C459.095 93.6593 460.663 95.4233 462.689 96.73C464.779 97.9713 467.197 98.592 469.941 98.592C472.75 98.592 475.167 97.9713 477.193 96.73C479.218 95.4233 480.753 93.6593 481.799 91.438C482.844 89.2167 483.367 86.6687 483.367 83.794C483.367 80.9193 482.844 78.3713 481.799 76.15C480.753 73.9287 479.218 72.1973 477.193 70.956C475.167 69.6493 472.75 68.996 469.941 68.996C467.197 68.996 464.779 69.6167 462.689 70.858C460.663 72.0993 459.095 73.8307 457.985 76.052C456.874 78.2733 456.319 80.854 456.319 83.794Z" fill="white"/>
<defs>
<linearGradient id="paint0_linear_2982_149" x1="0.296728" y1="55.4797" x2="92.8753" y2="56.0731" gradientUnits="userSpaceOnUse">
<stop stop-color="#4991FC"/>
<stop offset="0.456731" stop-color="#4973FC"/>
<stop offset="1" stop-color="#4952FC"/>
</linearGradient>
<linearGradient id="paint1_linear_2982_149" x1="0.296728" y1="55.4797" x2="92.8753" y2="56.0731" gradientUnits="userSpaceOnUse">
<stop stop-color="#4991FC"/>
<stop offset="0.456731" stop-color="#4973FC"/>
<stop offset="1" stop-color="#4952FC"/>
</linearGradient>
</defs>
</svg>
