<svg width="512" height="512" viewBox="0 0 512 512" fill="none" xmlns="http://www.w3.org/2000/svg">
<path d="M180.774 480.372C180.774 492.317 171.091 502 159.146 502H116.4C106.417 502 97.7306 495.167 95.3799 485.465L44.4399 275.205C41.803 264.321 47.9105 253.225 58.5164 249.63L97.9373 236.267C109.676 232.287 122.351 238.968 125.703 250.901L148.37 331.596C151.231 341.782 161.041 348.403 171.557 347.246L367.525 325.687C378.489 324.481 386.788 315.218 386.788 304.189V58.8249C386.788 46.8801 396.471 37.1969 408.416 37.1969H446.548C458.493 37.1969 468.176 46.8801 468.176 58.8249V480.372C468.176 492.317 458.493 502 446.548 502H408.416C396.471 502 386.788 492.317 386.788 480.372V443.248C386.788 430.522 375.854 420.547 363.182 421.711L200.424 436.662C189.292 437.684 180.774 447.021 180.774 458.199V480.372Z" fill="url(#paint0_linear_2974_138)"/>
<path d="M313.893 251.22C313.893 277.139 295.035 299.205 269.432 303.244C247.805 306.656 226.323 296.332 215.476 277.313L208.093 264.368C202.862 255.198 195.737 247.248 187.191 241.05L159.537 220.993C112.354 186.773 98.0959 122.287 125.703 70.9541C152.717 20.7232 212.865 -2.67446 266.442 16.8805C325.542 38.4514 356.252 103.589 335.287 162.907L317.947 211.967C315.264 219.56 313.893 227.554 313.893 235.606V251.22Z" fill="url(#paint1_linear_2974_138)"/>
<defs>
<linearGradient id="paint0_linear_2974_138" x1="45.1799" y1="262.741" x2="466.926" y2="265.444" gradientUnits="userSpaceOnUse">
<stop stop-color="#4991FC"/>
<stop offset="0.456731" stop-color="#4973FC"/>
<stop offset="1" stop-color="#4952FC"/>
</linearGradient>
<linearGradient id="paint1_linear_2974_138" x1="45.1799" y1="262.741" x2="466.926" y2="265.444" gradientUnits="userSpaceOnUse">
<stop stop-color="#4991FC"/>
<stop offset="0.456731" stop-color="#4973FC"/>
<stop offset="1" stop-color="#4952FC"/>
</linearGradient>
</defs>
</svg>
